<svg width="97" height="29" viewBox="0 0 97 29" fill="none" xmlns="http://www.w3.org/2000/svg">
<path d="M32.9766 24V8.29492H36.3066V21.25H42.6768V24H32.9766ZM59.6709 16.126C59.6709 17.3363 59.5205 18.4391 59.2197 19.4346C58.9189 20.4229 58.4606 21.2751 57.8447 21.9912C57.236 22.7074 56.4626 23.2588 55.5244 23.6455C54.5863 24.0251 53.4762 24.2148 52.1943 24.2148C50.9124 24.2148 49.8024 24.0251 48.8643 23.6455C47.9261 23.2588 47.1491 22.7074 46.5332 21.9912C45.9245 21.2751 45.4697 20.4193 45.1689 19.4238C44.8682 18.4284 44.7178 17.3219 44.7178 16.1045C44.7178 14.4788 44.9827 13.0645 45.5127 11.8613C46.0498 10.651 46.8734 9.71289 47.9834 9.04688C49.0934 8.38086 50.5042 8.04785 52.2158 8.04785C53.9202 8.04785 55.3203 8.38086 56.416 9.04688C57.5189 9.71289 58.3353 10.651 58.8652 11.8613C59.4023 13.0716 59.6709 14.4932 59.6709 16.126ZM48.209 16.126C48.209 17.2217 48.3451 18.167 48.6172 18.9619C48.8965 19.7497 49.3298 20.3584 49.917 20.7881C50.5042 21.2106 51.2633 21.4219 52.1943 21.4219C53.1396 21.4219 53.9059 21.2106 54.4932 20.7881C55.0804 20.3584 55.5065 19.7497 55.7715 18.9619C56.0436 18.167 56.1797 17.2217 56.1797 16.126C56.1797 14.4788 55.8717 13.1826 55.2559 12.2373C54.64 11.292 53.6266 10.8193 52.2158 10.8193C51.2777 10.8193 50.5114 11.0342 49.917 11.4639C49.3298 11.8864 48.8965 12.4951 48.6172 13.29C48.3451 14.0778 48.209 15.0231 48.209 16.126ZM68.8877 15.1807H75.1182V23.3232C74.2946 23.5954 73.4388 23.8138 72.5508 23.9785C71.6628 24.1361 70.6566 24.2148 69.5322 24.2148C67.971 24.2148 66.6462 23.9069 65.5576 23.291C64.4691 22.6751 63.6419 21.7656 63.0762 20.5625C62.5104 19.3594 62.2275 17.8805 62.2275 16.126C62.2275 14.4788 62.5426 13.0537 63.1729 11.8506C63.8102 10.6475 64.7376 9.71647 65.9551 9.05762C67.1797 8.39876 68.6729 8.06934 70.4346 8.06934C71.2653 8.06934 72.0853 8.15885 72.8945 8.33789C73.7038 8.51693 74.4378 8.74967 75.0967 9.03613L73.9902 11.7002C73.5104 11.4567 72.9626 11.2526 72.3467 11.0879C71.7308 10.9232 71.0863 10.8408 70.4131 10.8408C69.4463 10.8408 68.6048 11.0628 67.8887 11.5068C67.1797 11.9508 66.6283 12.5739 66.2344 13.376C65.8477 14.1709 65.6543 15.109 65.6543 16.1904C65.6543 17.2145 65.7939 18.124 66.0732 18.9189C66.3525 19.7067 66.793 20.3262 67.3945 20.7773C67.9961 21.2214 68.7803 21.4434 69.7471 21.4434C70.2197 21.4434 70.6172 21.4219 70.9395 21.3789C71.2689 21.3288 71.5768 21.2786 71.8633 21.2285V17.9521H68.8877V15.1807ZM93.1221 16.126C93.1221 17.3363 92.9717 18.4391 92.6709 19.4346C92.3701 20.4229 91.9118 21.2751 91.2959 21.9912C90.6872 22.7074 89.9137 23.2588 88.9756 23.6455C88.0374 24.0251 86.9274 24.2148 85.6455 24.2148C84.3636 24.2148 83.2536 24.0251 82.3154 23.6455C81.3773 23.2588 80.6003 22.7074 79.9844 21.9912C79.3757 21.2751 78.9209 20.4193 78.6201 19.4238C78.3193 18.4284 78.1689 17.3219 78.1689 16.1045C78.1689 14.4788 78.4339 13.0645 78.9639 11.8613C79.501 10.651 80.3245 9.71289 81.4346 9.04688C82.5446 8.38086 83.9554 8.04785 85.667 8.04785C87.3714 8.04785 88.7715 8.38086 89.8672 9.04688C90.9701 9.71289 91.7865 10.651 92.3164 11.8613C92.8535 13.0716 93.1221 14.4932 93.1221 16.126ZM81.6602 16.126C81.6602 17.2217 81.7962 18.167 82.0684 18.9619C82.3477 19.7497 82.7809 20.3584 83.3682 20.7881C83.9554 21.2106 84.7145 21.4219 85.6455 21.4219C86.5908 21.4219 87.3571 21.2106 87.9443 20.7881C88.5316 20.3584 88.9577 19.7497 89.2227 18.9619C89.4948 18.167 89.6309 17.2217 89.6309 16.126C89.6309 14.4788 89.3229 13.1826 88.707 12.2373C88.0911 11.292 87.0778 10.8193 85.667 10.8193C84.7288 10.8193 83.9626 11.0342 83.3682 11.4639C82.7809 11.8864 82.3477 12.4951 82.0684 13.29C81.7962 14.0778 81.6602 15.0231 81.6602 16.126Z" fill="black"/>
<circle cx="8.23529" cy="15.2941" r="8.23529" fill="#C89122"/>
<circle cx="18.9411" cy="24.3529" r="4.11765" fill="#959494"/>
</svg>
