<svg width="225" height="61" viewBox="0 0 225 61" fill="none" xmlns="http://www.w3.org/2000/svg">
<path d="M70.582 54V17.5928H78.3018V47.625H93.0688V54H70.582ZM132.464 35.7466C132.464 41.7729 130.97 46.4048 127.982 49.6421C124.994 52.8794 120.71 54.498 115.132 54.498C109.554 54.498 105.271 52.8794 102.283 49.6421C99.2944 46.4048 97.8003 41.7563 97.8003 35.6968C97.8003 29.6372 99.2944 25.0137 102.283 21.8262C105.288 18.6221 109.587 17.02 115.182 17.02C120.777 17.02 125.052 18.6304 128.007 21.8511C130.979 25.0718 132.464 29.7036 132.464 35.7466ZM105.894 35.7466C105.894 39.814 106.666 42.877 108.209 44.9355C109.753 46.9941 112.061 48.0234 115.132 48.0234C121.292 48.0234 124.371 43.9312 124.371 35.7466C124.371 27.5454 121.308 23.4448 115.182 23.4448C112.111 23.4448 109.795 24.4824 108.234 26.5576C106.674 28.6162 105.894 31.6792 105.894 35.7466ZM153.831 33.5552H168.274V52.4312C165.933 53.1948 163.725 53.7261 161.65 54.0249C159.591 54.3403 157.483 54.498 155.325 54.498C149.83 54.498 145.629 52.8877 142.724 49.667C139.835 46.4297 138.391 41.7896 138.391 35.7466C138.391 29.8696 140.068 25.2876 143.421 22.0005C146.792 18.7134 151.457 17.0698 157.417 17.0698C161.152 17.0698 164.754 17.8169 168.224 19.311L165.659 25.4868C163.003 24.1587 160.239 23.4946 157.367 23.4946C154.03 23.4946 151.357 24.6152 149.348 26.8564C147.339 29.0977 146.335 32.1108 146.335 35.896C146.335 39.8472 147.14 42.8687 148.75 44.9604C150.377 47.0356 152.735 48.0732 155.823 48.0732C157.433 48.0732 159.068 47.9072 160.729 47.5752V39.98H153.831V33.5552ZM210.01 35.7466C210.01 41.7729 208.516 46.4048 205.528 49.6421C202.54 52.8794 198.256 54.498 192.678 54.498C187.1 54.498 182.817 52.8794 179.829 49.6421C176.84 46.4048 175.346 41.7563 175.346 35.6968C175.346 29.6372 176.84 25.0137 179.829 21.8262C182.833 18.6221 187.133 17.02 192.728 17.02C198.323 17.02 202.598 18.6304 205.553 21.8511C208.524 25.0718 210.01 29.7036 210.01 35.7466ZM183.439 35.7466C183.439 39.814 184.211 42.877 185.755 44.9355C187.299 46.9941 189.607 48.0234 192.678 48.0234C198.837 48.0234 201.917 43.9312 201.917 35.7466C201.917 27.5454 198.854 23.4448 192.728 23.4448C189.657 23.4448 187.341 24.4824 185.78 26.5576C184.22 28.6162 183.439 31.6792 183.439 35.7466Z" fill="black"/>
<ellipse cx="19" cy="30.5" rx="19" ry="19.5" fill="#C89122"/>
<ellipse cx="44" cy="51.5" rx="10" ry="9.5" fill="#959494"/>
</svg>
