<svg width="25" height="24" viewBox="0 0 25 24" fill="none" xmlns="http://www.w3.org/2000/svg">
<path d="M12.9001 13C13.4524 13 13.9001 12.5523 13.9001 12C13.9001 11.4477 13.4524 11 12.9001 11C12.3479 11 11.9001 11.4477 11.9001 12C11.9001 12.5523 12.3479 13 12.9001 13Z" stroke="black" stroke-width="2" stroke-linecap="round" stroke-linejoin="round"/>
<path d="M12.9001 6C13.4524 6 13.9001 5.55228 13.9001 5C13.9001 4.44772 13.4524 4 12.9001 4C12.3479 4 11.9001 4.44772 11.9001 5C11.9001 5.55228 12.3479 6 12.9001 6Z" stroke="black" stroke-width="2" stroke-linecap="round" stroke-linejoin="round"/>
<path d="M12.9001 20C13.4524 20 13.9001 19.5523 13.9001 19C13.9001 18.4477 13.4524 18 12.9001 18C12.3479 18 11.9001 18.4477 11.9001 19C11.9001 19.5523 12.3479 20 12.9001 20Z" stroke="black" stroke-width="2" stroke-linecap="round" stroke-linejoin="round"/>
</svg>
